<?xml version="1.0" encoding="UTF-8" standalone="no"?>
<!-- Created with Inkscape (http://www.inkscape.org/) -->

<svg
   width="14.46526mm"
   height="2.35146mm"
   viewBox="0 0 14.465259 2.3514601"
   version="1.1"
   id="svg1"
   inkscape:version="1.4 (86a8ad7, 2024-10-11)"
   sodipodi:docname="Logo.svg"
   xmlns:inkscape="http://www.inkscape.org/namespaces/inkscape"
   xmlns:sodipodi="http://sodipodi.sourceforge.net/DTD/sodipodi-0.dtd"
   xmlns:xlink="http://www.w3.org/1999/xlink"
   xmlns="http://www.w3.org/2000/svg"
   xmlns:svg="http://www.w3.org/2000/svg">
  <sodipodi:namedview
     id="namedview1"
     pagecolor="#505050"
     bordercolor="#eeeeee"
     borderopacity="1"
     inkscape:showpageshadow="0"
     inkscape:pageopacity="0"
     inkscape:pagecheckerboard="0"
     inkscape:deskcolor="#505050"
     inkscape:document-units="mm"
     guidehicolor="#ffffff"
     guidehiopacity="1"
     inkscape:zoom="11.313709"
     inkscape:cx="44.017397"
     inkscape:cy="12.772116"
     inkscape:window-width="2560"
     inkscape:window-height="1494"
     inkscape:window-x="-11"
     inkscape:window-y="-11"
     inkscape:window-maximized="1"
     inkscape:current-layer="layer1" />
  <defs
     id="defs1">
    <inkscape:perspective
       sodipodi:type="inkscape:persp3d"
       inkscape:vp_x="0 : -146.14855 : 1"
       inkscape:vp_y="0 : 999.99997 : 0"
       inkscape:vp_z="209.99999 : -146.14855 : 1"
       inkscape:persp3d-origin="105 : -195.64854 : 1"
       id="perspective4" />
    <rect
       x="427.95285"
       y="559.15247"
       width="34.354012"
       height="30.100658"
       id="rect2" />
    <rect
       x="311.86243"
       y="583.93231"
       width="148.06525"
       height="99.018639"
       id="rect1" />
    <color-profile
       name="sRGB-IEC61966-2.1"
       xlink:href="../../../../../WINDOWS/system32/spool/drivers/color/sRGB%20Color%20Space%20Profile.icm"
       id="color-profile2" />
  </defs>
  <g
     inkscape:label="Ebene 1"
     inkscape:groupmode="layer"
     id="layer1"
     transform="translate(-134.76327,-165.56576)">
    <path
       d="m 149.22853,166.30853 -1.45371,0.77087 -0.11483,0.79458 h -0.65113 l 0.0996,-0.46838 -0.853,0.46838 h -0.63872 l 1.47424,-0.78202 0.11292,-0.78343 h 0.65112 l -0.0973,0.46002 0.83064,-0.46002 z"
       style="font-weight:bold;font-size:3.175px;font-family:Sans;-inkscape-font-specification:'Sans, Bold';letter-spacing:0px;fill:#26b9b9;fill-opacity:1;stroke-width:2.71673;paint-order:markers fill stroke"
       id="path20"
       inkscape:transform-center-x="-2.438472"
       inkscape:transform-center-y="0.28020656" />
    <path
       d="m 142.01822,166.26531 c 0.18811,0 0.28527,0.0493 0.2915,0.14777 0.007,0.0985 -0.0879,0.2458 -0.28528,0.4419 l -1.02608,1.019 h -0.56121 l 0.78184,-0.77645 c 0.0636,-0.0632 0.12281,-0.12593 0.1786,-0.18819 0.0565,-0.0632 0.0908,-0.10966 0.10312,-0.1394 0.0136,-0.0343 0.009,-0.0594 -0.0158,-0.0753 -0.0233,-0.0158 -0.0707,-0.0237 -0.14196,-0.0237 -0.0506,0 -0.10962,0.007 -0.17749,0.0223 -0.0666,0.0148 -0.14683,0.0386 -0.24061,0.0711 l -1.11731,1.10961 h -0.5581 l 1.57632,-1.56545 h 0.5581 l -0.17406,0.17286 c 0.16936,-0.0697 0.31831,-0.12315 0.44669,-0.16032 0.12941,-0.0371 0.24993,-0.0557 0.36155,-0.0557 z"
       style="font-weight:bold;font-size:3.175px;font-family:Sans;-inkscape-font-specification:'Sans, Bold';letter-spacing:0px;fill:#26b9b9;fill-opacity:1;stroke-width:2.71673;paint-order:markers fill stroke"
       id="path19"
       inkscape:transform-center-x="4.2044027"
       inkscape:transform-center-y="0.25859656" />
    <path
       d="m 146.21894,166.25974 c 0.28318,0 0.43109,0.0646 0.44361,0.19376 0.0135,0.12825 -0.10145,0.31319 -0.34473,0.55482 l -0.17686,0.17564 h -1.27744 c -0.1155,0.12267 -0.15813,0.21653 -0.1285,0.28158 0.0307,0.0651 0.13894,0.0976 0.32498,0.0976 0.11782,0 0.2512,-0.0191 0.40018,-0.0572 0.149,-0.0381 0.27752,-0.079 0.38552,-0.12266 h 0.062 l -0.40564,0.40286 c -0.17191,0.0455 -0.324,0.0785 -0.45623,0.099 -0.13217,0.0204 -0.26598,0.0307 -0.40138,0.0307 -0.34933,0 -0.54585,-0.0707 -0.58969,-0.21189 -0.0433,-0.14125 0.0658,-0.34246 0.32873,-0.6036 0.26016,-0.25835 0.55393,-0.4628 0.88118,-0.61335 0.32926,-0.15149 0.64737,-0.22723 0.95433,-0.22723 z m -0.36084,0.31365 c -0.10749,0 -0.22111,0.0251 -0.34086,0.0753 -0.11982,0.0502 -0.23949,0.13057 -0.35911,0.24116 h 0.72398 c 0.10273,-0.10501 0.15329,-0.18401 0.15183,-0.23698 -0.001,-0.053 -0.06,-0.0795 -0.17576,-0.0795 z"
       style="font-weight:bold;font-size:3.175px;font-family:Sans;-inkscape-font-specification:'Sans, Bold';letter-spacing:0px;fill:#26b9b9;fill-opacity:1;stroke-width:2.71673;paint-order:markers fill stroke"
       id="path18"
       inkscape:transform-center-x="-0.37041267"
       inkscape:transform-center-y="0.27674156" />
    <path
       d="m 145.38853,165.70492 -2.18411,2.16906 h -0.5581 l 0.16423,-0.16309 c -0.16717,0.0706 -0.30956,0.12267 -0.42697,0.15613 -0.11736,0.0335 -0.23085,0.0502 -0.34041,0.0502 -0.21187,0 -0.3075,-0.0734 -0.28672,-0.22025 0.021,-0.14683 0.15649,-0.34479 0.40728,-0.59384 0.13381,-0.1329 0.27339,-0.25046 0.41873,-0.35269 0.14726,-0.10315 0.29509,-0.19143 0.44342,-0.26485 0.14047,-0.0697 0.28001,-0.1236 0.41863,-0.16171 0.13956,-0.039 0.25946,-0.0585 0.35971,-0.0585 0.10439,0 0.17935,0.0103 0.22493,0.0307 0.0475,0.0195 0.0911,0.0446 0.13043,0.0753 l 0.67095,-0.66633 z m -1.73495,0.92702 c -0.14676,0 -0.29846,0.0414 -0.45513,0.12407 -0.15572,0.0817 -0.30705,0.19561 -0.45397,0.34152 -0.1544,0.15334 -0.2373,0.26486 -0.24848,0.33456 -0.0104,0.0688 0.0496,0.10315 0.17983,0.10315 0.0506,0 0.11256,-0.008 0.18649,-0.0251 0.0746,-0.0176 0.14769,-0.0405 0.2192,-0.0683 l 0.77341,-0.76809 c -0.0244,-0.0148 -0.0548,-0.0255 -0.0917,-0.0321 -0.037,-0.006 -0.0734,-0.01 -0.10956,-0.01 z"
       style="font-weight:bold;font-size:3.175px;font-family:Sans;-inkscape-font-specification:'Sans, Bold';letter-spacing:0px;fill:#26b9b9;fill-opacity:1;stroke-width:2.71673;paint-order:markers fill stroke"
       id="path15"
       inkscape:transform-center-x="1.4130642"
       inkscape:transform-center-y="2.1562696e-05" />
    <path
       d="m 140.89671,165.79789 -0.38378,0.36802 h -0.37827 l -1.39697,1.33963 h 0.37827 l -0.38378,0.36801 h -1.35186 l 0.38378,-0.36801 h 0.37828 l 1.39697,-1.33963 h -0.37828 l 0.38378,-0.36802 z"
       style="font-weight:bold;font-size:3.175px;font-family:Sans;-inkscape-font-specification:'Sans, Bold';letter-spacing:0px;fill:#26b9b9;fill-opacity:1;stroke-width:2.71673;paint-order:markers fill stroke"
       id="path16-1" />
    <path
       d="m 136.30116,165.56576 0.85266,2.30839 h -0.61546 l -0.15968,-0.46664 h -0.85577 l -0.15968,0.46664 h -0.59996 l 0.85266,-2.30839 z m -0.35037,0.59067 -0.2837,0.82785 h 0.56741 z"
       style="font-weight:bold;font-size:3.175px;font-family:Sans;-inkscape-font-specification:'Sans, Bold';letter-spacing:0px;fill:#a8ecec;stroke-width:2.86499;paint-order:markers fill stroke"
       id="path17" />
    <path
       d="m 138.73357,165.56576 v 0.40928 h -0.37827 v 1.48983 h 0.37827 v 0.40928 h -1.35186 v -0.40928 h 0.37828 v -1.48983 h -0.37828 v -0.40928 z"
       style="font-weight:bold;font-size:3.175px;font-family:Sans;-inkscape-font-specification:'Sans, Bold';letter-spacing:0px;fill:#a8ecec;stroke-width:2.86499;paint-order:markers fill stroke"
       id="path16" />
  </g>
</svg>
